:SAMPLES-PER-SECOND 30
:FULLY-SPECIFIED
:DEGREES
913
root  80.0631 39.1491 0.48882 1.026 79.1341 2.45361
RightUpLeg  -3.90592 -6.49207 -0.885622
RightLeg  11.9118 16.5174 2.31137
RightFoot  -3.82538 0.224752 -3.80873
RightToes  -1.74624e-010 0 -3.6325e-017
Spine  0.720592 1.31452 13.0934
Spine1  7.44289 3.81203 -9.64156
HEad  -0.408744 -19.9689 -2.09141
LeftShoulder1  -0.635987 5.14919 -32.4994
LeftArm  -0.0336978 9.89464 -40.1792
LeftForeArm  38.9146 -8.12068 -9.75034
LeftHand  -0.0862073 8.10301 -1.69928
RightShoulder  -0.864503 -5.78895 31.1949
RightArm  19.656 18.23 51.9379
RightForeArm  16.7885 7.18833 9.4705
RightHand  -0.0857822 4.21267 -1.30843
LeftUpLeg  -4.37692 -4.01237 3.93656
LeftLeg  7.80877 -15.2918 1.44419
LeftFoot  -3.01609 0.275968 -3.55929
LeftToes  2.27646e-009 -8.13696e-011 -1.44715e-011
914
root  80.2575 39.2119 0.342043 1.13722 77.3779 2.30322
RightUpLeg  -3.67872 -6.24115 -1.00929
RightLeg  11.0025 18.091 1.97085
RightFoot  -3.36521 0.236982 -3.71397
RightToes  -1.74624e-010 0 -3.6325e-017
Spine  0.332863 1.03513 12.1222
Spine1  7.1598 3.40124 -9.46545
HEad  0.547911 -20.1768 -2.26259
LeftShoulder1  -0.615951 5.09611 -32.5319
LeftArm  0.200476 7.18591 -39.968
LeftForeArm  37.3223 -9.38071 -9.38705
LeftHand  -0.0773383 8.4088 -1.09115
RightShoulder  -0.935749 -5.95521 31.5668
RightArm  19.6782 14.9555 51.7973
RightForeArm  19.3754 8.13422 9.09322
RightHand  -0.0137947 3.72394 -0.43152
LeftUpLeg  -3.59864 -2.00322 3.45819
LeftLeg  6.79459 -15.3356 2.12234
LeftFoot  -2.73329 0.250526 -3.16516
LeftToes  2.27646e-009 -8.13696e-011 -1.44715e-011
915
root  80.4159 39.2653 0.157664 1.91267 75.6831 3.0675
RightUpLeg  -3.4026 -6.0936 -1.43354
RightLeg  10.2746 19.7597 1.63466
RightFoot  -3.4149 0.167352 -2.74432
RightToes  -1.74624e-010 0 -3.6325e-017
Spine  0.244912 0.687839 10.8013
Spine1  7.05694 2.922 -9.05132
HEad  0.960836 -20.5817 -2.46969
LeftShoulder1  -0.60326 5.05973 -32.6172
LeftArm  -0.201451 3.55039 -39.6531
LeftForeArm  35.0853 -9.21351 -9.37519
LeftHand  -0.0341963 7.98544 0.375917
RightShoulder  -0.943426 -5.97056 31.6375
RightArm  22.4154 12.8981 51.3346
RightForeArm  17.9215 7.60169 10.0332
RightHand  -0.0638849 4.00112 -1.0585
LeftUpLeg  -2.7512 -0.613201 2.7832
LeftLeg  5.90436 -14.9034 2.66067
LeftFoot  -2.52701 0.216271 -2.62054
LeftToes  2.27646e-009 -8.13696e-011 -1.44715e-011
916
root  80.5259 39.3187 -0.192813 2.01764 73.0165 2.68866
RightUpLeg  -3.94642 -5.78035 -1.80018
RightLeg  9.66451 22.2104 1.55409
RightFoot  -2.63843 0.172799 -2.49914
RightToes  -1.74624e-010 0 -3.6325e-017
Spine  -0.0103127 0.643555 11.214
Spine1  7.17352 3.07029 -10.2101
HEad  0.726965 -20.7149 -2.56715
LeftShoulder1  -0.542374 4.91081 -32.4048
LeftArm  -1.89124 0.59031 -40.1677
LeftForeArm  33.2229 -10.0284 -8.57957
LeftHand  -0.0243891 7.84026 0.808432
RightShoulder  -0.974104 -6.03773 31.8437
RightArm  23.8773 9.85903 50.1518
RightForeArm  18.3468 9.43394 9.63878
RightHand  -0.0341804 3.46706 -0.697088
LeftUpLeg  -2.51009 0.715244 2.21633
LeftLeg  5.25643 -13.459 3.05073
LeftFoot  -2.28485 0.182655 -2.10242
LeftToes  2.27646e-009 -8.13696e-011 -1.44715e-011
917
root  80.5296 39.3426 -0.489698 2.30722 70.3693 2.42572
RightUpLeg  -4.83229 -5.0504 -1.92941
RightLeg  9.13 24.2392 1.25132
RightFoot  -2.6599 0.0521243 -0.926672
RightToes  -1.74624e-010 0 -3.6325e-017
Spine  0.916081 0.504245 10.0248
Spine1  5.88659 2.68317 -9.53084
HEad  0.75045 -21.7291 -3.14251
LeftShoulder1  -0.51303 4.83818 -32.2996
LeftArm  -1.71564 -2.42491 -40.1216
LeftForeArm  30.3183 -10.4791 -8.45192
LeftHand  -0.0237768 7.93283 0.830567
RightShoulder  -0.965688 -6.03221 31.5954
RightArm  24.6065 6.54961 48.8094
RightForeArm  18.7523 11.0981 8.94018
RightHand  -0.00967434 3.78952 -0.387808
LeftUpLeg  -2.68902 1.85263 1.92301
LeftLeg  4.95935 -11.8361 3.04075
LeftFoot  -2.14416 0.167593 -1.92332
LeftToes  2.27646e-009 -8.13696e-011 -1.44715e-011
918
root  80.495 39.3455 -0.646368 1.87225 69.0482 1.74249
RightUpLeg  -5.18626 -4.14639 -1.49936
RightLeg  8.63479 24.7168 0.433144
RightFoot  -2.30889 0.0120799 -0.351148
RightToes  -1.74624e-010 0 -3.6325e-017
Spine  0.934731 -0.0274572 6.86489
Spine1  6.3638 1.47789 -6.43954
HEad  0.158686 -24.4198 -4.27127
LeftShoulder1  -0.455573 4.7001 -31.943
LeftArm  -1.69571 -5.03768 -40.3743
LeftForeArm  28.0327 -11.9366 -7.80952
LeftHand  -0.0133084 7.48322 1.47355
RightShoulder  -0.940536 -5.97822 31.4084
RightArm  24.2842 4.58542 47.5705
RightForeArm  20.3 11.444 8.63848
RightHand  0.0386697 3.70398 0.251127
LeftUpLeg  -3.00185 2.85156 2.35321
LeftLeg  5.26301 -11.4993 2.2277
LeftFoot  -2.24965 0.128984 -1.45186
LeftToes  2.27646e-009 -8.13696e-011 -1.44715e-011
919
root  80.4402 39.3424 -0.89502 2.04768 66.8239 1.69385
RightUpLeg  -5.69 -3.38161 -1.48884
RightLeg  8.04025 26.3083 -0.200336
RightFoot  -2.07636 -0.0532737 0.480639
RightToes  -1.74624e-010 0 -3.6325e-017
Spine  2.05394 -0.43175 3.78147
Spine1  5.50831 0.442266 -3.75463
HEad  -2.23012 -24.4602 -3.99181
LeftShoulder1  -0.387784 4.52825 -31.7131
LeftArm  -0.221041 -6.78525 -40.0037
LeftForeArm  25.3101 -13.8845 -7.20428
LeftHand  -0.00343751 6.88938 2.35753
RightShoulder  -0.956596 -6.01183 31.5488
RightArm  24.8557 3.39954 45.652
RightForeArm  21.0606 11.4515 8.66615
RightHand  0.0658228 2.37066 0.767527
LeftUpLeg  -3.14283 3.7697 2.36371
LeftLeg  5.28843 -10.189 1.67446
LeftFoot  -2.28744 0.0908847 -0.97512
LeftToes  2.27646e-009 -8.13696e-011 -1.44715e-011
920
root  80.4069 39.3449 -1.20954 2.34615 64.2781 1.79456
RightUpLeg  -6.32591 -2.50485 -1.67619
RightLeg  7.53117 27.9871 -0.703671
RightFoot  -1.91609 -0.126742 1.38778
RightToes  -1.74624e-010 0 -3.6325e-017
Spine  2.67182 -0.856731 1.116
Spine1  5.39702 -0.504791 -1.61746
HEad  -4.22931 -23.766 -3.14495
LeftShoulder1  -0.325929 4.3701 -31.4998
LeftArm  1.06874 -8.25854 -39.4343
LeftForeArm  23.6569 -15.7725 -6.43819
LeftHand  -0.0111288 6.7765 1.95265
RightShoulder  -0.918125 -5.9396 31.0423
RightArm  24.9922 2.73318 44.326
RightForeArm  19.163 10.7759 9.07901
RightHand  -0.00436242 2.97863 -0.20517
LeftUpLeg  -3.20946 4.54809 2.17492
LeftLeg  5.25099 -8.34893 1.15596
LeftFoot  -2.20576 0.0478318 -0.428856
LeftToes  2.27646e-009 -8.13696e-011 -1.44715e-011
921
root  80.4263 39.318 -1.63879 2.86427 60.5743 2.18408
RightUpLeg  -7.35605 -0.956229 -2.25704
RightLeg  7.59595 30.186 -0.806296
RightFoot  -2.15177 -0.252498 2.95108
RightToes  -1.74624e-010 0 -3.6325e-017
Spine  3.85978 -0.922953 -0.498356
Spine1  4.56763 -0.847113 -0.651555
HEad  -6.03878 -22.6273 -1.54828
LeftShoulder1  -0.281315 4.25042 -31.5481
LeftArm  1.7777 -8.95408 -38.8244
LeftForeArm  22.2762 -17.5668 -5.61091
LeftHand  -0.00660684 6.69951 2.38409
RightShoulder  -0.791743 -5.71685 29.1663
RightArm  23.0613 1.41122 44.0425
RightForeArm  16.3226 9.66665 9.28455
RightHand  -0.125969 5.16675 -1.72664
LeftUpLeg  -3.10113 5.01776 1.57767
LeftLeg  5.19146 -5.0141 0.905172
LeftFoot  -2.35108 0.0325777 -0.266129
LeftToes  2.27646e-009 -8.13696e-011 -1.44715e-011
922
root  80.4707 39.2728 -2.06003 2.74362 56.9814 1.78485
RightUpLeg  -8.42992 1.16912 -2.43988
RightLeg  7.54303 31.3828 -1.09555
RightFoot  -2.09073 -0.339754 4.0183
RightToes  -1.74624e-010 0 -3.6325e-017
Spine  4.4708 -1.2805 -1.43334
Spine1  4.46641 -1.32579 -0.35915
HEad  -7.16051 -20.0088 -0.334852
LeftShoulder1  -0.278091 4.25004 -31.1374
LeftArm  1.47948 -9.38973 -38.2904
LeftForeArm  21.1462 -18.6717 -5.0626
LeftHand  0.00436435 6.6424 3.38778
RightShoulder  -0.84955 -5.8606 29.4409
RightArm  20.4759 1.44907 42.6679
RightForeArm  17.3518 8.73094 8.91737
RightHand  -0.106397 3.98927 -1.59425
LeftUpLeg  -3.28479 5.71827 1.50954
LeftLeg  5.54933 -2.14152 0.389444
LeftFoot  -2.85301 0.0564009 -0.666272
LeftToes  2.27646e-009 -8.13696e-011 -1.44715e-011
923
root  80.508 39.1892 -2.48226 3.91893 52.9322 2.32306
RightUpLeg  -10.745 4.83177 -3.70082
RightLeg  8.72266 29.566 -0.328553
RightFoot  -2.50598 -0.388116 4.82534
RightToes  -1.74624e-010 0 -3.6325e-017
Spine  4.66943 -1.45348 -3.10709
Spine1  4.12091 -1.65069 0.169348
HEad  -8.61847 -18.5078 -0.162088
LeftShoulder1  -0.24906 4.17776 -30.8095
LeftArm  3.0543 -9.77022 -37.1831
LeftForeArm  17.9304 -19.1835 -5.07826
LeftHand  0.00351875 6.41564 3.82879
RightShoulder  -0.897565 -5.98407 29.5985
RightArm  18.11 1.22196 41.3643
RightForeArm  17.5159 8.61863 8.18032
RightHand  -0.0928867 4.86009 -1.32893
LeftUpLeg  -4.19599 5.74354 0.605947
LeftLeg  6.11783 1.91969 0.368225
LeftFoot  -3.25207 0.0338659 -0.331919
LeftToes  2.27646e-009 -8.13696e-011 -1.44715e-011
924
root  80.476 39.1281 -2.83184 4.44292 49.4514 2.49792
RightUpLeg  -12.5315 7.10068 -4.81118
RightLeg  9.36192 22.4078 -0.277634
RightFoot  -2.85099 -0.486359 6.2834
RightToes  -1.74624e-010 0 -3.6325e-017
Spine  5.24926 -1.72451 -4.73982
Spine1  3.73387 -2.07697 0.682922
HEad  -10.0744 -17.1012 0.640899
LeftShoulder1  -0.179138 3.99555 -30.305
LeftArm  2.6268 -10.0509 -36.3244
LeftForeArm  17.8769 -19.2019 -5.04267
LeftHand  -0.000662472 6.62101 2.95994
RightShoulder  -0.957794 -6.13163 29.8809
RightArm  17.2318 0.502054 40.4576
RightForeArm  17.3604 9.55654 7.56507
RightHand  -0.0504812 2.81404 -0.926405
LeftUpLeg  -4.75445 6.00153 0.166806
LeftLeg  6.3845 5.09784 0.203911
LeftFoot  -3.492 0.0560015 -0.679774
LeftToes  2.27646e-009 -8.13696e-011 -1.44715e-011
925
root  80.4409 39.1443 -3.24162 4.68106 45.6088 2.97302
RightUpLeg  -13.6728 4.18741 -5.52583
RightLeg  9.6769 13.6615 -0.856781
RightFoot  -1.41813 -0.458091 5.16106
RightToes  -1.74624e-010 0 -3.6325e-017
Spine  6.79328 -1.81584 -6.68177
Spine1  2.83963 -2.53092 1.96701
HEad  -11.1928 -15.3269 1.05195
LeftShoulder1  -0.123689 3.84684 -29.9081
LeftArm  0.799694 -9.97158 -35.7752
LeftForeArm  19.9137 -18.4894 -5.15325
LeftHand  -0.0173566 6.27476 1.99085
RightShoulder  -1.0154 -6.26006 30.2779
RightArm  19.7898 0.42391 39.4321
RightForeArm  12.9838 11.0202 7.76358
RightHand  -0.131487 3.2618 -2.0098
LeftUpLeg  -4.15995 5.88457 -0.621833
LeftLeg  5.17667 9.18439 0.0495599
LeftFoot  -2.89889 0.0256255 -0.201568
LeftToes  2.27646e-009 -8.13696e-011 -1.44715e-011
